<mxfile host="app.diagrams.net" modified="2024-08-29T11:30:00.568Z" agent="Mozilla/5.0 (Windows NT 10.0; Win64; x64) AppleWebKit/537.36 (KHTML, like Gecko) Chrome/127.0.0.0 Safari/537.36" etag="lNTJbJxLlMRLa7BJBdkj" version="24.7.1" type="github">
  <diagram name="Page-1" id="YrfRDsz6BIIXrySJnLpR">
    <mxGraphModel dx="1120" dy="1629" grid="1" gridSize="10" guides="1" tooltips="1" connect="1" arrows="1" fold="1" page="1" pageScale="1" pageWidth="827" pageHeight="1169" math="0" shadow="0">
      <root>
        <mxCell id="0" />
        <mxCell id="1" parent="0" />
        <mxCell id="2" value="E-commerce Website" style="whiteSpace=wrap;strokeWidth=2;verticalAlign=top;" parent="1" vertex="1">
          <mxGeometry x="240" y="-150" width="1575" height="406" as="geometry" />
        </mxCell>
        <mxCell id="3" value="Users" style="whiteSpace=wrap;strokeWidth=2;verticalAlign=top;" parent="2" vertex="1">
          <mxGeometry x="43" y="75" width="257" height="272" as="geometry" />
        </mxCell>
        <mxCell id="4" value="Website" style="whiteSpace=wrap;strokeWidth=2;" parent="3" vertex="1">
          <mxGeometry x="167" y="127" width="73" height="34" as="geometry" />
        </mxCell>
        <mxCell id="5" value="Customer" style="whiteSpace=wrap;strokeWidth=2;" parent="3" vertex="1">
          <mxGeometry x="33" y="43" width="84" height="34" as="geometry" />
        </mxCell>
        <mxCell id="6" value="Guest" style="whiteSpace=wrap;strokeWidth=2;" parent="3" vertex="1">
          <mxGeometry x="46" y="127" width="57" height="34" as="geometry" />
        </mxCell>
        <mxCell id="7" value="Admin" style="whiteSpace=wrap;strokeWidth=2;" parent="3" vertex="1">
          <mxGeometry x="44" y="211" width="61" height="34" as="geometry" />
        </mxCell>
        <mxCell id="8" value="" style="curved=1;startArrow=none;endArrow=none;exitX=0.48;exitY=-1.71;entryX=-0.26;entryY=-2.21;" parent="3" source="5" target="4" edge="1">
          <mxGeometry relative="1" as="geometry">
            <Array as="points">
              <mxPoint x="142" y="60" />
            </Array>
          </mxGeometry>
        </mxCell>
        <mxCell id="9" value="" style="curved=1;startArrow=none;endArrow=none;exitX=0.25;exitY=-1.71;entryX=-0.59;entryY=-1.71;" parent="3" source="6" target="4" edge="1">
          <mxGeometry relative="1" as="geometry">
            <Array as="points" />
          </mxGeometry>
        </mxCell>
        <mxCell id="10" value="" style="curved=1;startArrow=none;endArrow=none;exitX=0.3;exitY=-1.71;entryX=-0.26;entryY=-1.21;" parent="3" source="7" target="4" edge="1">
          <mxGeometry relative="1" as="geometry">
            <Array as="points">
              <mxPoint x="142" y="228" />
            </Array>
          </mxGeometry>
        </mxCell>
        <mxCell id="hjomw1EQr1Ipl5Z-arUl-34" style="edgeStyle=orthogonalEdgeStyle;rounded=0;orthogonalLoop=1;jettySize=auto;html=1;exitX=0.5;exitY=0;exitDx=0;exitDy=0;" edge="1" parent="2" source="11">
          <mxGeometry relative="1" as="geometry">
            <mxPoint x="680" y="-130" as="targetPoint" />
          </mxGeometry>
        </mxCell>
        <mxCell id="11" value="Components" style="whiteSpace=wrap;strokeWidth=2;verticalAlign=top;" parent="2" vertex="1">
          <mxGeometry x="350" y="33" width="676" height="356" as="geometry" />
        </mxCell>
        <mxCell id="12" value="Application Server" style="whiteSpace=wrap;strokeWidth=2;" parent="11" vertex="1">
          <mxGeometry x="164" y="169" width="148" height="34" as="geometry" />
        </mxCell>
        <mxCell id="13" value="Database" style="rounded=1;absoluteArcSize=1;arcSize=14;whiteSpace=wrap;strokeWidth=2;" parent="11" vertex="1">
          <mxGeometry x="33" y="169" width="81" height="34" as="geometry" />
        </mxCell>
        <mxCell id="14" value="Service Layer" style="whiteSpace=wrap;strokeWidth=2;" parent="11" vertex="1">
          <mxGeometry x="384" y="43" width="112" height="34" as="geometry" />
        </mxCell>
        <mxCell id="15" value="Data Store" style="whiteSpace=wrap;strokeWidth=2;" parent="11" vertex="1">
          <mxGeometry x="568" y="43" width="91" height="34" as="geometry" />
        </mxCell>
        <mxCell id="16" value="Notification Service" style="whiteSpace=wrap;strokeWidth=2;" parent="11" vertex="1">
          <mxGeometry x="362" y="127" width="157" height="34" as="geometry" />
        </mxCell>
        <mxCell id="17" value="Payment Gateway" style="whiteSpace=wrap;strokeWidth=2;" parent="11" vertex="1">
          <mxGeometry x="368" y="211" width="145" height="34" as="geometry" />
        </mxCell>
        <mxCell id="18" value="Analytics Service" style="whiteSpace=wrap;strokeWidth=2;" parent="11" vertex="1">
          <mxGeometry x="372" y="295" width="137" height="34" as="geometry" />
        </mxCell>
        <mxCell id="19" value="" style="curved=1;startArrow=none;endArrow=none;exitX=-3.32;exitY=-0.47;entryX=-2.37;entryY=-0.47;" parent="11" source="13" target="12" edge="1">
          <mxGeometry relative="1" as="geometry">
            <Array as="points" />
          </mxGeometry>
        </mxCell>
        <mxCell id="20" value="" style="curved=1;startArrow=none;endArrow=none;exitX=-1.78;exitY=-0.97;entryX=-3.12;entryY=-0.47;" parent="11" source="12" target="14" edge="1">
          <mxGeometry relative="1" as="geometry">
            <Array as="points">
              <mxPoint x="337" y="60" />
            </Array>
          </mxGeometry>
        </mxCell>
        <mxCell id="21" value="" style="curved=1;startArrow=none;endArrow=none;exitX=-2.13;exitY=-0.47;entryX=-3.84;entryY=-0.47;" parent="11" source="14" target="15" edge="1">
          <mxGeometry relative="1" as="geometry">
            <Array as="points" />
          </mxGeometry>
        </mxCell>
        <mxCell id="22" value="" style="curved=1;startArrow=none;endArrow=none;exitX=-1.6;exitY=-0.97;entryX=-2.23;entryY=-0.47;" parent="11" source="12" target="16" edge="1">
          <mxGeometry relative="1" as="geometry">
            <Array as="points">
              <mxPoint x="337" y="144" />
            </Array>
          </mxGeometry>
        </mxCell>
        <mxCell id="23" value="" style="curved=1;startArrow=none;endArrow=none;exitX=-1.6;exitY=0.03;entryX=-2.42;entryY=-0.47;" parent="11" source="12" target="17" edge="1">
          <mxGeometry relative="1" as="geometry">
            <Array as="points">
              <mxPoint x="337" y="228" />
            </Array>
          </mxGeometry>
        </mxCell>
        <mxCell id="24" value="" style="curved=1;startArrow=none;endArrow=none;exitX=-1.78;exitY=0.03;entryX=-2.56;entryY=-0.47;" parent="11" source="12" target="18" edge="1">
          <mxGeometry relative="1" as="geometry">
            <Array as="points">
              <mxPoint x="337" y="312" />
            </Array>
          </mxGeometry>
        </mxCell>
        <mxCell id="25" value="External Systems" style="whiteSpace=wrap;strokeWidth=2;verticalAlign=top;" parent="2" vertex="1">
          <mxGeometry x="1076" y="75" width="473" height="272" as="geometry" />
        </mxCell>
        <mxCell id="26" value="Payment Gateway Provider" style="whiteSpace=wrap;strokeWidth=2;" parent="25" vertex="1">
          <mxGeometry x="241" y="43" width="209" height="34" as="geometry" />
        </mxCell>
        <mxCell id="27" value="PaymentGateway" style="whiteSpace=wrap;strokeWidth=2;" parent="25" vertex="1">
          <mxGeometry x="39" y="43" width="140" height="34" as="geometry" />
        </mxCell>
        <mxCell id="28" value="NotificationService" style="whiteSpace=wrap;strokeWidth=2;" parent="25" vertex="1">
          <mxGeometry x="33" y="127" width="152" height="34" as="geometry" />
        </mxCell>
        <mxCell id="29" value="Notification Service Provider" style="whiteSpace=wrap;strokeWidth=2;" parent="25" vertex="1">
          <mxGeometry x="235" y="127" width="221" height="34" as="geometry" />
        </mxCell>
        <mxCell id="30" value="AnalyticsService" style="whiteSpace=wrap;strokeWidth=2;" parent="25" vertex="1">
          <mxGeometry x="43" y="211" width="132" height="34" as="geometry" />
        </mxCell>
        <mxCell id="31" value="Analytics Tool" style="whiteSpace=wrap;strokeWidth=2;" parent="25" vertex="1">
          <mxGeometry x="288" y="211" width="115" height="34" as="geometry" />
        </mxCell>
        <mxCell id="32" value="" style="curved=1;startArrow=none;endArrow=none;exitX=-6.69;exitY=-1.71;entryX=-5.15;entryY=-1.71;" parent="25" source="27" target="26" edge="1">
          <mxGeometry relative="1" as="geometry">
            <Array as="points" />
          </mxGeometry>
        </mxCell>
        <mxCell id="33" value="" style="curved=1;startArrow=none;endArrow=none;exitX=-6.08;exitY=-1.71;entryX=-4.87;entryY=-1.71;" parent="25" source="28" target="29" edge="1">
          <mxGeometry relative="1" as="geometry">
            <Array as="points" />
          </mxGeometry>
        </mxCell>
        <mxCell id="34" value="" style="curved=1;startArrow=none;endArrow=none;exitX=-7.15;exitY=-1.71;entryX=-9.36;entryY=-1.71;" parent="25" source="30" target="31" edge="1">
          <mxGeometry relative="1" as="geometry">
            <Array as="points" />
          </mxGeometry>
        </mxCell>
        <mxCell id="hjomw1EQr1Ipl5Z-arUl-35" value="Hello World&amp;nbsp;" style="text;html=1;align=center;verticalAlign=middle;resizable=0;points=[];autosize=1;strokeColor=none;fillColor=none;" vertex="1" parent="1">
          <mxGeometry x="575" y="-202" width="90" height="30" as="geometry" />
        </mxCell>
        <mxCell id="hjomw1EQr1Ipl5Z-arUl-36" value="Hello World" style="text;html=1;align=center;verticalAlign=middle;resizable=0;points=[];autosize=1;strokeColor=none;fillColor=none;" vertex="1" parent="1">
          <mxGeometry x="875" y="-302" width="90" height="30" as="geometry" />
        </mxCell>
      </root>
    </mxGraphModel>
  </diagram>
</mxfile>
